<svg width="128" height="21" fill="none" xmlns="http://www.w3.org/2000/svg">
  <path d="M.638.132h2.646v6.426h.063L9.563.132h3.57L6.182 6.999 13.595 15H9.878L3.347 7.545h-.063V15H.638V.132zm20.364 13.587h-.063c-.252.448-.658.819-1.218 1.113-.56.28-1.197.42-1.91.42-.407 0-.834-.056-1.282-.168a3.87 3.87 0 01-1.218-.504 3.385 3.385 0 01-.924-.966c-.238-.406-.357-.903-.357-1.491 0-.756.21-1.358.63-1.806.434-.448.987-.791 1.66-1.029a8.955 8.955 0 012.225-.462A23.871 23.871 0 0120.96 8.7v-.252c0-.63-.23-1.092-.693-1.386-.448-.308-.987-.462-1.617-.462-.532 0-1.043.112-1.533.336-.49.224-.896.497-1.218.819l-1.302-1.533a5.707 5.707 0 011.974-1.197 6.854 6.854 0 012.29-.399c.895 0 1.63.126 2.204.378.588.252 1.05.581 1.386.987.336.406.567.861.693 1.365.14.504.21 1.008.21 1.512V15h-2.352v-1.281zm-.042-3.318h-.567c-.406 0-.833.021-1.28.063a4.866 4.866 0 00-1.24.231c-.378.112-.693.28-.945.504-.252.21-.378.504-.378.882 0 .238.05.441.147.609.112.154.252.28.42.378.168.098.357.168.567.21.21.042.42.063.63.063.868 0 1.526-.231 1.974-.693.448-.462.672-1.092.672-1.89v-.357zm5.33-5.481h2.394v1.617h.042c.224-.504.61-.945 1.155-1.323.56-.392 1.218-.588 1.974-.588.658 0 1.218.119 1.68.357.476.224.861.525 1.155.903.308.378.532.812.672 1.302s.21.994.21 1.512V15h-2.52V9.414c0-.294-.02-.602-.063-.924a2.393 2.393 0 00-.273-.861 1.752 1.752 0 00-.588-.651c-.238-.168-.56-.252-.966-.252-.406 0-.756.084-1.05.252a2.227 2.227 0 00-.735.609 2.86 2.86 0 00-.42.882 3.372 3.372 0 00-.147.987V15h-2.52V4.92zm22.471 0v9.177c0 .91-.112 1.729-.336 2.457-.224.742-.574 1.365-1.05 1.869-.462.518-1.05.917-1.764 1.197s-1.561.42-2.541.42c-.406 0-.84-.035-1.302-.105a9.332 9.332 0 01-1.344-.315 8.253 8.253 0 01-1.26-.525 6.126 6.126 0 01-1.092-.714l1.449-1.953c.49.462 1.043.812 1.659 1.05a4.898 4.898 0 001.869.378c.602 0 1.106-.091 1.512-.273.42-.168.749-.406.987-.714.252-.308.427-.672.525-1.092.112-.42.168-.882.168-1.386v-.735h-.042c-.364.49-.833.868-1.407 1.134-.56.252-1.19.378-1.89.378-.756 0-1.442-.14-2.058-.42a4.78 4.78 0 01-1.575-1.134 5.325 5.325 0 01-.987-1.659 5.829 5.829 0 01-.357-2.037c0-.728.112-1.414.336-2.058a5.272 5.272 0 01.987-1.68 4.841 4.841 0 011.554-1.134c.616-.28 1.302-.42 2.058-.42.714 0 1.379.147 1.995.441a3.368 3.368 0 011.47 1.365h.042V4.92h2.394zm-5.376 1.764c-.462 0-.875.084-1.239.252-.35.168-.651.399-.903.693a3.2 3.2 0 00-.567 1.008 4.094 4.094 0 00-.189 1.26c0 .406.063.798.189 1.176.14.378.329.721.567 1.029a3 3 0 00.903.714c.364.182.77.273 1.218.273.462 0 .875-.084 1.239-.252.378-.182.693-.42.945-.714.266-.294.469-.63.609-1.008.14-.392.21-.798.21-1.218 0-.434-.07-.847-.21-1.239a3.039 3.039 0 00-.609-1.029 2.678 2.678 0 00-.924-.693 2.924 2.924 0 00-1.239-.252zm7.809 3.234c0-.798.14-1.519.42-2.163a5.185 5.185 0 011.175-1.68 5.138 5.138 0 011.743-1.071 6.05 6.05 0 012.143-.378c.756 0 1.47.126 2.142.378a5.138 5.138 0 011.742 1.071c.49.462.876 1.022 1.156 1.68.293.644.44 1.365.44 2.163 0 .798-.147 1.526-.44 2.184a5.157 5.157 0 01-1.156 1.701 5.415 5.415 0 01-1.742 1.092 5.766 5.766 0 01-2.142.399c-.756 0-1.47-.133-2.142-.399a5.415 5.415 0 01-1.744-1.092 5.433 5.433 0 01-1.175-1.701c-.28-.658-.42-1.386-.42-2.184zm2.561 0c0 .392.056.784.168 1.176.127.392.308.742.546 1.05.239.308.54.56.904.756.364.196.797.294 1.302.294.504 0 .938-.098 1.302-.294.364-.196.665-.448.903-.756.237-.308.412-.658.524-1.05.127-.392.19-.784.19-1.176a3.63 3.63 0 00-.19-1.155 3.085 3.085 0 00-.525-1.05 2.582 2.582 0 00-.902-.735c-.364-.196-.798-.294-1.302-.294-.505 0-.938.098-1.302.294a2.582 2.582 0 00-.904.735c-.238.308-.42.658-.546 1.05a4.045 4.045 0 00-.168 1.155zm10.256 0c0-.798.14-1.519.42-2.163a5.185 5.185 0 011.176-1.68 5.138 5.138 0 011.743-1.071 6.05 6.05 0 012.142-.378c.756 0 1.47.126 2.142.378a5.138 5.138 0 011.743 1.071c.49.462.875 1.022 1.155 1.68.294.644.44 1.365.44 2.163 0 .798-.146 1.526-.44 2.184a5.157 5.157 0 01-1.155 1.701 5.415 5.415 0 01-1.743 1.092 5.766 5.766 0 01-2.142.399c-.756 0-1.47-.133-2.142-.399a5.415 5.415 0 01-1.743-1.092 5.433 5.433 0 01-1.176-1.701c-.28-.658-.42-1.386-.42-2.184zm2.562 0c0 .392.056.784.168 1.176.126.392.308.742.546 1.05.238.308.539.56.903.756.364.196.798.294 1.302.294s.938-.098 1.302-.294c.364-.196.665-.448.903-.756s.413-.658.525-1.05c.126-.392.189-.784.189-1.176a3.63 3.63 0 00-.19-1.155 3.085 3.085 0 00-.524-1.05 2.582 2.582 0 00-.903-.735c-.364-.196-.798-.294-1.302-.294s-.938.098-1.302.294a2.582 2.582 0 00-.903.735c-.238.308-.42.658-.546 1.05a4.045 4.045 0 00-.168 1.155zm12.86 3.696h6.93V15H77.92V.132h1.512v13.482zm10.5-12.222a.964.964 0 01-.316.735c-.21.182-.44.273-.693.273-.252 0-.483-.091-.693-.273a.964.964 0 01-.315-.735.9.9 0 01.315-.714c.21-.196.441-.294.693-.294.252 0 .483.098.693.294a.9.9 0 01.315.714zM89.616 15h-1.386V5.172h1.386V15zm4.667-9.828c.028.266.042.532.042.798.014.252.021.511.021.777h.042c.154-.266.35-.511.588-.735.238-.224.504-.413.798-.567.294-.168.602-.294.924-.378.336-.098.665-.147.987-.147 1.26 0 2.191.336 2.793 1.008.602.658.903 1.603.903 2.835V15h-1.386V9.561c0-1.092-.189-1.925-.567-2.499-.378-.588-1.078-.882-2.1-.882-.07 0-.266.028-.588.084-.322.056-.665.21-1.029.462-.35.252-.665.63-.945 1.134-.28.504-.42 1.204-.42 2.1V15h-1.386V7.335c0-.266-.014-.602-.042-1.008a27.401 27.401 0 00-.063-1.155h1.428zm11.354 4.788c0 .518.091 1.008.273 1.47.196.448.455.847.777 1.197a4.22 4.22 0 001.155.819c.448.196.931.294 1.449.294.504 0 .98-.091 1.428-.273a3.881 3.881 0 001.218-.756 3.33 3.33 0 00.798-1.197c.196-.462.287-.98.273-1.554 0-.518-.084-1.001-.252-1.449a3.372 3.372 0 00-.735-1.197 3.355 3.355 0 00-1.176-.819 3.714 3.714 0 00-1.554-.315c-.518 0-1.001.105-1.449.315a3.7 3.7 0 00-1.155.819 3.926 3.926 0 00-.777 1.197 3.813 3.813 0 00-.273 1.449zm-.252 7.014c.406.546.931.98 1.575 1.302a4.732 4.732 0 002.184.504c.7 0 1.295-.105 1.785-.315.49-.196.882-.469 1.176-.819.308-.35.525-.763.651-1.239.14-.462.21-.959.21-1.491v-1.764h-.042c-.448.672-.994 1.148-1.638 1.428-.644.28-1.323.42-2.037.42a5.377 5.377 0 01-2.016-.378 5.227 5.227 0 01-1.617-1.029 4.905 4.905 0 01-1.092-1.596 4.978 4.978 0 01-.399-1.995 5.218 5.218 0 011.407-3.612 4.695 4.695 0 011.575-1.071 5.031 5.031 0 012.016-.399c.294 0 .602.028.924.084a4.2 4.2 0 01.987.294c.336.14.665.336.987.588.322.238.623.546.903.924h.042V5.172h1.386v9.744c0 .532-.07 1.099-.21 1.701a4.013 4.013 0 01-.777 1.659c-.378.504-.91.924-1.596 1.26-.686.336-1.582.504-2.688.504-.98 0-1.855-.161-2.625-.483-.77-.322-1.47-.819-2.1-1.491l1.029-1.092zm20.503-6.888c0-.546-.091-1.057-.273-1.533a3.552 3.552 0 00-.735-1.239 3.355 3.355 0 00-1.176-.819c-.448-.21-.959-.315-1.533-.315s-1.092.105-1.554.315a3.404 3.404 0 00-1.155.819c-.308.35-.553.763-.735 1.239a4.573 4.573 0 00-.252 1.533c0 .546.084 1.057.252 1.533.182.476.427.889.735 1.239.322.35.707.63 1.155.84.462.196.98.294 1.554.294.574 0 1.085-.098 1.533-.294a3.6 3.6 0 001.176-.84c.322-.35.567-.763.735-1.239.182-.476.273-.987.273-1.533zm1.512 0c0 .742-.133 1.428-.399 2.058a4.819 4.819 0 01-1.071 1.638 5.033 5.033 0 01-1.659 1.092c-.63.252-1.33.378-2.1.378a5.713 5.713 0 01-2.1-.378 5.088 5.088 0 01-1.638-1.092 5.088 5.088 0 01-1.092-1.638 5.491 5.491 0 01-.378-2.058c0-.742.126-1.428.378-2.058.266-.63.63-1.176 1.092-1.638a4.819 4.819 0 011.638-1.071 5.447 5.447 0 012.1-.399c.77 0 1.47.133 2.1.399a4.775 4.775 0 011.659 1.071 4.819 4.819 0 011.071 1.638c.266.63.399 1.316.399 2.058z" fill="#464D5A"/>
</svg>